<?xml version="1.0" encoding="UTF-8"?>
<svg version="1.1" xmlns="http://www.w3.org/2000/svg" width="1254" height="1254">
<path d="M0 0 C413.82 0 827.64 0 1254 0 C1254 413.82 1254 827.64 1254 1254 C840.18 1254 426.36 1254 0 1254 C0 840.18 0 426.36 0 0 Z " fill="#000000" transform="translate(0,0)"/>
<path d="M0 0 C8.27827274 0.44257425 16.54850482 0.57570021 24.83682799 0.67806399 C32.84352381 0.77748622 40.84652132 0.991334 48.85001016 1.23417032 C50.54563691 1.28391487 52.24138215 1.32977826 53.93722081 1.37168109 C85.13587618 2.1425841 85.13587618 2.1425841 92.26191115 9.00158656 C94.47258487 11.64028274 96.12834176 14.33171543 97.81602454 17.3363806 C98.94749944 18.69970501 100.1055292 20.04270757 101.31602454 21.3363806 C101.83809485 21.93966185 102.36016517 22.5429431 102.89805579 23.1645056 C105.55834347 26.17696986 108.2787036 29.13230789 111.00352454 32.0863806 C111.51528235 32.64196654 112.02704017 33.19755248 112.55430579 33.76997435 C113.04672767 34.30235716 113.53914954 34.83473998 114.04649329 35.3832556 C114.48372718 35.85601927 114.92096107 36.32878294 115.37144446 36.81587279 C116.85082102 38.43394246 116.85082102 38.43394246 118.85900378 40.02471697 C121.42526653 43.0560268 121.40550419 44.90060089 121.57293677 48.84350646 C121.60528267 49.49586565 121.63762857 50.14822484 121.67095464 50.82035249 C121.77349932 53.00590075 121.84750521 55.19141627 121.92076087 57.37812865 C121.98678014 58.947689 122.05392189 60.51720248 122.12210059 62.08667052 C122.71960825 76.54031639 123.02615938 91.00828533 123.26884913 105.47174418 C123.43484214 115.1694892 123.67723718 124.85120371 124.12876868 134.54023802 C127.36095246 205.28092648 127.36095246 205.28092648 109.05551791 225.65359652 C100.89634714 234.13556753 91.75957135 241.26139853 82.0068872 247.80358374 C77.24465759 251.13539031 73.24476021 254.64442653 69.81602454 259.3363806 C69.15602454 259.3363806 68.49602454 259.3363806 67.81602454 259.3363806 C67.81602454 259.9963806 67.81602454 260.6563806 67.81602454 261.3363806 C47.42307769 261.64062164 27.03059386 261.8695765 6.63584495 262.00993884 C-2.83481672 262.07685683 -12.30406504 262.16801481 -21.77381921 262.31709349 C-30.03179162 262.44703313 -38.28874025 262.53062137 -46.5477066 262.55953103 C-50.91784746 262.57642153 -55.28506076 262.6158451 -59.65425897 262.71087134 C-63.77566951 262.79977387 -67.89297684 262.82620925 -72.01525521 262.80678046 C-73.51979623 262.81032876 -75.02448825 262.83581932 -76.52819467 262.88605177 C-82.98416189 263.0909612 -88.69557309 263.01795217 -93.70455194 258.47377646 C-96.80296203 255.29513275 -99.48397342 251.85525094 -102.18397546 248.3363806 C-103.36487833 247.07188082 -104.56636814 245.82556725 -105.80506921 244.6176306 C-107.2257154 243.21471786 -108.64632526 241.81176618 -110.06483483 240.4066931 C-111.43631876 239.04834239 -112.81009877 237.69231115 -114.18397546 236.3363806 C-115.85317048 234.67221833 -117.51880479 233.00457335 -119.18397546 231.3363806 C-117.53198409 227.06906015 -114.33389043 224.21611696 -111.14491296 221.06684935 C-110.54522698 220.4676216 -109.94554101 219.86839385 -109.32768273 219.25100768 C-108.05737255 217.98371523 -106.78463615 216.71885077 -105.50965905 215.45625365 C-103.58158956 213.54628243 -101.66148514 211.62859024 -99.74256921 209.70942748 C-93.73027018 203.71502743 -87.72460941 197.76210461 -81.18397546 192.3363806 C-78.17420061 193.64827655 -76.51739165 194.87521813 -74.58998132 197.51893675 C-68.99175796 204.52712583 -64.11037105 208.986032 -54.97038293 210.07686293 C-49.55676689 210.4303219 -44.17021547 210.49595687 -38.74647546 210.4770056 C-36.3753439 210.50683274 -34.00424752 210.53958273 -31.63319421 210.5750891 C-26.67652759 210.63160131 -21.72334019 210.63395911 -16.76649499 210.60102904 C-11.72101157 210.57307577 -6.68811494 210.62828687 -1.64442468 210.76509154 C28.80492913 213.01887239 28.80492913 213.01887239 55.81425452 201.89730513 C61.55764282 196.42848596 68.69886659 188.96198642 68.90695167 180.74641478 C68.89706992 179.16633926 68.8818681 177.58629209 68.8626554 176.00630248 C68.84987682 174.21899193 68.83743666 172.43167893 68.82528663 170.644364 C68.81737035 169.6934941 68.80945407 168.74262419 68.8012979 167.76294005 C68.75922037 161.67093367 68.77102619 155.57873477 68.77118564 149.48661101 C68.76819246 144.13493971 68.74760495 138.78443522 68.68931556 133.43306029 C68.63397367 128.25600863 68.62773946 123.08091291 68.65400863 117.9036566 C68.65523936 115.93576235 68.63886248 113.96777116 68.60409331 112.0001837 C68.33279083 95.78307167 68.33279083 95.78307167 71.99916053 90.9757849 C74.47907057 88.48679156 76.99971508 86.42605186 79.81602454 84.3363806 C80.99766592 83.07738876 82.15192377 81.79097172 83.25352454 80.4613806 C85.65789118 77.64596299 88.13228185 74.91591385 90.66319251 72.21357787 C96.25067972 66.23031842 101.3517858 59.97279391 106.35508704 53.49653685 C109.05729895 50.00229731 111.8961704 46.65080963 114.81602454 43.3363806 C114.37774329 43.66509154 113.93946204 43.99380248 113.48789954 44.33247435 C112.85368079 44.80813841 112.21946204 45.28380248 111.56602454 45.7738806 C110.46967689 46.59759154 110.46967689 46.59759154 109.35118079 47.4379431 C107.57101618 48.77100936 105.78679485 50.09866722 103.99961829 51.4223181 C94.11628041 58.76717155 84.60836898 66.37897725 75.69883704 74.88276732 C72.02883195 78.3363806 72.02883195 78.3363806 69.81602454 78.3363806 C69.59064506 77.48590651 69.36526557 76.63543242 69.1330564 75.75918639 C66.42889347 68.73139548 61.44294606 62.99459862 54.81602454 59.3363806 C46.82185039 56.95218917 38.23147524 57.47929013 29.97618079 57.57466185 C27.56205271 57.563343 25.14793944 57.54831901 22.73385596 57.52978575 C17.6905695 57.50619868 12.65028458 57.52972626 7.60728431 57.58662474 C1.17509828 57.6550793 -5.24933698 57.60206699 -11.68103719 57.51298296 C-16.66187637 57.45822732 -21.64090036 57.47037298 -26.62187409 57.50189841 C-28.99113376 57.50867293 -31.36055456 57.49473485 -33.72955155 57.4588114 C-48.90326892 57.06047719 -48.90326892 57.06047719 -61.65219235 64.26780283 C-63.88156488 66.64740275 -65.92508904 69.11547381 -67.8939383 71.71350729 C-69.65709941 73.93157294 -71.69647571 75.71842033 -73.87147546 77.5238806 C-74.9803888 78.45576121 -76.08518595 79.39258407 -77.18397546 80.3363806 C-77.70537354 80.78044753 -78.22677163 81.22451445 -78.76396966 81.68203795 C-81.2503617 84.57874753 -80.4502958 88.37444019 -80.31483483 92.00434935 C-80.2726827 93.84313057 -80.23074127 95.68191663 -80.18898034 97.52070677 C-80.16147195 98.49768523 -80.13396356 99.47466368 -80.10562158 100.48124754 C-79.97247013 105.68216147 -79.93200219 110.88417208 -79.87538171 116.0863806 C-79.79823083 122.69534752 -79.69489895 129.3003813 -79.48817468 135.9066931 C-78.26485126 176.58038708 -78.26485126 176.58038708 -87.69557214 187.0641638 C-90.89048684 189.95292373 -94.15965935 192.45675825 -97.78930688 194.77325499 C-103.81807876 198.70855017 -108.9209273 203.94694578 -113.96131921 209.05122435 C-114.45813699 209.55182875 -114.95495477 210.05243315 -115.46682763 210.56820738 C-117.02089756 212.13429311 -118.57159231 213.70365206 -120.12147546 215.2738806 C-122.19024584 217.36916963 -124.26227544 219.46115673 -126.33631921 221.55122435 C-127.24373864 222.47024535 -128.15115808 223.38926634 -129.08607507 224.33613646 C-131.18397546 226.3363806 -131.18397546 226.3363806 -132.18397546 226.3363806 C-132.37090686 204.94411926 -132.51195498 183.55199269 -132.59847283 162.15908015 C-132.63971359 152.22579635 -132.69593265 142.29302019 -132.78749108 132.36006224 C-132.86726128 123.70185059 -132.91884878 115.04400658 -132.93668342 106.38543767 C-132.94710803 101.80110154 -132.97158222 97.21781709 -133.02981591 92.63381827 C-133.08421064 88.31694562 -133.10085024 84.00155535 -133.08883691 79.68437254 C-133.09103377 78.10208697 -133.10689559 76.51975069 -133.13761926 74.9377619 C-133.35857669 62.97121766 -133.35857669 62.97121766 -130.65209413 59.20427287 C-128.67863488 57.5577246 -128.67863488 57.5577246 -126.47414804 56.04351389 C-123.73416272 54.00108259 -122.0238018 51.75990789 -119.99314904 49.01434386 C-86.0153691 3.54148936 -55.13495476 -3.04368555 0 0 Z " fill="#FCFCFC" transform="translate(384.18397545814514,491.66361939907074)"/>
<path d="M0 0 C0.79570967 0.00582568 1.59141933 0.01165137 2.41124141 0.01765358 C3.25416205 0.01594473 4.09708268 0.01423589 4.96554637 0.01247525 C7.80624343 0.00916595 10.64670726 0.02020764 13.48738277 0.03111184 C15.51720856 0.03167564 17.54703476 0.03136 19.57686031 0.03022683 C25.10139452 0.02965111 30.62584254 0.04144081 36.15035665 0.05537474 C41.9186086 0.06784566 47.68686234 0.06904972 53.45512569 0.07142556 C64.38444573 0.07765105 75.31372593 0.0940763 86.2430284 0.11412454 C98.68297765 0.13645032 111.12292875 0.1474686 123.56289303 0.15751541 C149.15867605 0.17844163 174.75442367 0.21363833 200.35017574 0.25816262 C200.35017574 2.25816262 200.35017574 2.25816262 198.28767574 4.50816262 C196.26152959 6.46581931 194.14408737 8.27384418 191.97517574 10.07066262 C189.53495583 12.13706161 187.41185129 14.25337004 185.35017574 16.69566262 C179.97617065 23.02668231 173.93744298 28.7524954 168.03645504 34.58604348 C166.58456949 36.02573713 165.14399175 37.47681823 163.70564449 38.93003762 C161.29828635 41.30944964 158.81753399 43.57233419 156.28767574 45.82066262 C152.76559144 48.93695275 152.76559144 48.93695275 149.55990398 52.3645736 C146.73247972 54.78748671 145.27981752 54.75249345 141.59218013 54.73918068 C140.41711406 54.74467934 139.24204799 54.750178 138.03137386 54.75584328 C136.10331653 54.73427163 136.10331653 54.73427163 134.13630855 54.71226418 C132.76627817 54.71113564 131.39624536 54.7117697 130.02621639 54.7140342 C126.30941759 54.71518203 122.59313496 54.69166213 118.87645614 54.66373837 C114.99140019 54.63873595 111.10633245 54.63638364 107.22120845 54.63163674 C99.86533111 54.61920351 92.50969151 54.58637735 85.15391886 54.54623878 C76.77917019 54.50153176 68.40441018 54.47953674 60.02957189 54.45945704 C42.80296898 54.4176449 25.5765975 54.34728626 8.35017574 54.25816262 C7.92671871 55.17734475 7.92671871 55.17734475 7.49470699 56.11509621 C5.94253185 59.02145146 3.82931313 60.72833099 1.35017574 62.88316262 C0.46330074 63.65917824 -0.42357426 64.43519387 -1.33732426 65.23472512 C-2.10044926 65.90245949 -2.86357426 66.57019387 -3.64982426 67.25816262 C-7.11542622 70.72376457 -6.27096885 75.55494011 -6.39982426 80.25816262 C-6.47458989 81.26234231 -6.54935551 82.26652199 -6.62638676 83.30113137 C-6.76980215 89.46002566 -5.6986234 93.00140828 -1.46211064 97.55950844 C3.71244439 102.44697849 7.51018016 103.41756102 14.51701534 103.48806679 C15.79629909 103.45046746 17.07558284 103.41286812 18.39363277 103.37412941 C19.78111757 103.36970211 21.16862296 103.36980048 22.55610836 103.37403786 C25.52536839 103.37380563 28.49204672 103.34260898 31.46077526 103.28670228 C36.16032338 103.19897561 40.85838154 103.1852548 45.55864131 103.18145669 C54.68460997 103.16407846 63.80908646 103.07230515 72.93446529 102.9726249 C84.55662207 102.84928938 96.17868852 102.76052384 107.8014915 102.73721355 C112.46838298 102.72541749 117.13307128 102.6775976 121.79932988 102.60093069 C124.70600496 102.55985289 127.61230383 102.54771793 130.51924312 102.54294121 C132.49791732 102.53079435 134.47627859 102.48343897 136.45439327 102.43484414 C142.43125773 102.45283061 146.38005597 102.61204838 151.01030147 106.6193229 C152.14659351 107.8107496 153.2618679 109.02275045 154.35017574 110.25816262 C155.4154083 111.25096565 156.48920698 112.2346866 157.57283199 113.20738137 C158.50998043 114.11101418 159.44712886 115.01464699 160.41267574 115.94566262 C160.90960933 116.4052134 161.40654293 116.86476418 161.91853511 117.33824074 C163.32283199 118.70738137 163.32283199 118.70738137 165.35017574 121.25816262 C165.06216346 124.88416337 163.33742191 126.63497398 160.81501949 129.12144387 C160.08734371 129.8439634 159.35966793 130.56648293 158.60994136 131.31089699 C157.84359371 132.05661965 157.07724605 132.80234231 156.28767574 133.57066262 C155.54839839 134.30478371 154.80912105 135.03890481 154.04744136 135.79527199 C149.88766724 139.89681656 145.61797052 143.81457224 141.196123 147.63047707 C138.46423983 150.03934694 135.90117535 152.59795456 133.35017574 155.19566262 C132.61734371 155.93526223 132.61734371 155.93526223 131.86970699 156.68980324 C130.69414049 157.8768949 129.52178748 159.0671676 128.35017574 160.25816262 C125.43500282 159.18415154 123.57207398 158.48006086 121.35017574 156.25816262 C118.91991604 156.05503249 118.91991604 156.05503249 116.05716121 156.24212563 C114.93279155 156.28732338 113.80842189 156.33252114 112.64998043 156.37908852 C111.40933834 156.43819909 110.16869625 156.49730965 108.89045894 156.55821145 C106.18660555 156.66734893 103.48273099 156.77447329 100.77871883 156.87945473 C99.70631574 156.92255019 99.70631574 156.92255019 98.61224794 156.96651626 C89.37427026 157.33051029 80.13159591 157.50219018 70.88841105 157.6770885 C61.91718597 157.84723765 52.95930617 158.07695708 43.99690425 158.5176841 C-16.39507533 161.41665022 -16.39507533 161.41665022 -37.28822148 142.74677956 C-50.40387568 129.9005964 -61.89558878 114.60436644 -63.20944035 95.77371132 C-63.2123528 91.80471713 -62.99185174 87.90411872 -62.71232426 83.94566262 C-62.67278434 82.55572363 -62.64016974 81.16557186 -62.61417973 79.7753135 C-62.09392143 58.35158719 -55.38260499 44.14622517 -40.06336796 29.31544411 C-33.00722697 22.81938352 -25.66152032 16.8067596 -17.98747075 11.06010354 C-3.66551169 0.02022894 -3.66551169 0.02022894 0 0 Z " fill="#FBFBFB" transform="translate(832.6498242616653,495.7418373823166)"/>
<path d="M0 0 C1.19321239 0.03430744 2.38642479 0.06861488 3.61579514 0.10396194 C15.75430072 0.48128577 27.87623248 1.07162277 39.98876953 1.95410156 C40.88082313 2.01795075 41.77287672 2.08179995 42.69196224 2.14758396 C48.75100619 2.62600619 48.75100619 2.62600619 49.875 3.75 C50.19985685 6.80743493 50.45812921 9.84558471 50.67089844 12.91162109 C50.73913787 13.87725479 50.8073773 14.84288849 50.87768459 15.83778381 C51.7379317 28.58918257 52.26418453 41.35042309 52.625 54.125 C52.66027172 55.34608459 52.69554344 56.56716919 52.731884 57.82525635 C54.09913386 111.20346787 54.09913386 111.20346787 37.48513794 129.51522827 C29.08245546 138.23793037 19.09178017 145.54915129 8.62770081 151.59033203 C6.72084009 152.64235263 6.72084009 152.64235263 5.875 154.75 C-14.61364331 155.10124718 -35.10167137 155.36532099 -55.59270668 155.52718258 C-65.10840444 155.60435509 -74.62222591 155.70945368 -84.13671875 155.8815918 C-92.43499955 156.03165369 -100.7319212 156.12799968 -109.0315212 156.16132742 C-113.4222697 156.18079627 -117.80913213 156.22613737 -122.19862747 156.33595085 C-151.03751431 157.02994641 -151.03751431 157.02994641 -158.27874756 151.49319458 C-161.3870504 148.49735001 -163.75040264 145.25106288 -165.95479965 141.55298042 C-167.77795353 138.74396507 -170.05479509 136.77033883 -172.5625 134.5625 C-174.74609375 132.58203125 -174.74609375 132.58203125 -176.125 130.75 C-175.53569937 126.06203414 -172.33453163 123.96567918 -168.875 121.125 C-167.93261475 120.33440186 -167.93261475 120.33440186 -166.97119141 119.52783203 C-161.86344322 115.27542999 -156.61774347 111.21913982 -151.30859375 107.22265625 C-149.06403955 105.51136547 -146.91108426 103.72763409 -144.78515625 101.87109375 C-144.24391113 101.4013916 -143.70266602 100.93168945 -143.14501953 100.44775391 C-141.64889269 99.13812359 -140.16581342 97.81363099 -138.68359375 96.48828125 C-136.125 94.75 -136.125 94.75 -133.953125 94.82421875 C-131.12896487 96.25440241 -129.25603618 98.44617711 -127.125 100.75 C-125.5688323 102.3061677 -124.05197947 101.91767206 -121.88496399 101.96446228 C-120.96985046 101.98606918 -120.05473694 102.00767609 -119.1118927 102.02993774 C-117.59337959 102.05753677 -117.59337959 102.05753677 -116.04418945 102.08569336 C-114.98388519 102.10832748 -113.92358093 102.13096161 -112.83114624 102.15428162 C-103.00518709 102.35206174 -93.17790769 102.46704983 -83.35043049 102.55750179 C-76.74904563 102.6192092 -70.15047856 102.70754695 -63.55053711 102.86108398 C-57.16888791 103.00891384 -50.78979843 103.08690347 -44.40654564 103.11721992 C-41.98113712 103.14044334 -39.55582716 103.18789473 -37.13140297 103.26078606 C-25.98304404 103.58051629 -15.79382036 103.78369255 -6.58666992 96.84985352 C1.82764286 84.51446599 1.82764286 84.51446599 -0.125 52.75 C-34.115 52.75 -68.105 52.75 -103.125 52.75 C-100.155 49.285 -100.155 49.285 -97.125 45.75 C-96.08314367 44.19793108 -95.07840025 42.61958122 -94.13110352 41.00805664 C-70.29216418 2.4595956 -43.27277314 -1.25464738 0 0 Z " fill="#FB0121" transform="translate(710.125,598.25)"/>
<path d="M0 0 C12.01954585 0.48758493 24.04033339 0.71877161 36.06735921 0.93324256 C60.73746501 1.37867877 85.39004524 2.13123587 110.04488933 3.0971576 C110.04488933 3.7571576 110.04488933 4.4171576 110.04488933 5.0971576 C108.54098308 6.5424701 108.54098308 6.5424701 106.48238933 8.2221576 C103.52760375 10.72356338 100.92120472 13.26758371 98.41988933 16.2221576 C95.53200012 19.62855419 92.52092449 22.30121628 89.04488933 25.0971576 C86.03141744 27.95609247 83.26632616 30.96427244 80.54488933 34.0971576 C76.26462173 39.02315522 71.72492376 43.40795457 66.74801433 47.61668885 C63.87397873 50.11499044 61.12239728 52.75941952 58.73187244 55.72728264 C56.36534247 57.64896764 54.82454073 57.41668446 51.80315959 57.32765687 C50.71608211 57.30406601 49.62900463 57.28047516 48.5089854 57.25616944 C47.31539913 57.21545823 46.12181285 57.17474701 44.8920573 57.13280213 C42.96127571 57.08679267 41.03049258 57.04082776 39.09967148 56.99650753 C37.01990753 56.9471131 34.94036905 56.89139587 32.86077297 56.83541214 C28.50215382 56.72320979 24.14362879 56.65786524 19.78393352 56.60469544 C19.04601286 56.59558612 18.30809221 56.58647681 17.54781032 56.57709146 C15.27340431 56.54947553 12.99899142 56.52249365 10.72457683 56.4955951 C1.34349551 56.38389375 -8.03276449 56.23935261 -17.41018879 55.9487201 C-56.37901683 52.83144865 -56.37901683 52.83144865 -91.08366597 65.80252564 C-102.61300295 77.22272979 -103.07219384 93.32672242 -103.36917317 108.6987201 C-103.39461254 117.14372319 -103.08490037 125.57076901 -102.72726643 134.0068866 C-102.33905989 143.80801487 -102.18436499 153.6161817 -102.01225102 163.42300522 C-101.93301311 166.82862976 -101.7972509 170.22816837 -101.6508199 173.63148987 C-101.58812257 175.71328122 -101.52625859 177.79509788 -101.46536458 179.87694275 C-101.41027226 180.81302872 -101.35517994 181.74911469 -101.29841816 182.7135669 C-101.22072037 186.46617776 -101.20986636 189.04176638 -103.41840947 192.16943467 C-105.1829193 193.95941997 -106.98851394 195.53435617 -108.95511067 197.0971576 C-110.18734656 198.17699856 -111.41687387 199.25994506 -112.64261067 200.3471576 C-113.65001301 201.21534119 -113.65001301 201.21534119 -114.67776692 202.10106385 C-116.84568422 204.00124522 -118.97001237 205.94285458 -121.08523762 207.90135682 C-126.14350832 212.5820953 -131.26119177 217.19229206 -136.45511067 221.7221576 C-137.33610432 222.50369202 -137.33610432 222.50369202 -138.23489583 223.30101502 C-143.70901513 228.03369897 -143.70901513 228.03369897 -146.95511067 228.0971576 C-150.12329718 225.55292114 -151.76411716 224.00447989 -152.61224949 219.97539341 C-152.62712281 218.79616779 -152.64199612 217.61694216 -152.65732014 216.40198243 C-152.67217575 215.74196919 -152.68703136 215.08195595 -152.70233715 214.40194231 C-152.74558615 212.19723982 -152.7532949 209.99390043 -152.76077473 207.78880799 C-152.78393077 206.2048656 -152.80905614 204.62095096 -152.83600056 203.03706849 C-152.90151558 198.73698525 -152.93382648 194.43729197 -152.95605385 190.13678777 C-152.97073345 187.44522022 -152.99126273 184.75375795 -153.01357472 182.06224358 C-153.08194107 173.62711647 -153.13026981 165.19223153 -153.14958417 156.75684661 C-153.17194634 147.04544379 -153.25947372 137.33757478 -153.40458715 127.62724608 C-153.51305048 120.10589784 -153.56312547 112.58553771 -153.56978977 105.06341654 C-153.57500732 100.57805659 -153.60400995 96.09601807 -153.69388783 91.61148751 C-154.24983004 62.13236161 -154.24983004 62.13236161 -149.0635854 55.49039185 C-146.64088847 53.09067388 -144.00508644 51.21955994 -141.18689167 49.31238282 C-136.81000246 46.31389275 -134.42389329 42.74218409 -131.60358346 38.30254281 C-100.92554848 -9.8099304 -51.02194648 -2.10719964 0 0 Z " fill="#FA0121" transform="translate(672.955110669136,492.9028424024582)"/>
<path d="M0 0 C3.96 0 7.92 0 12 0 C14.47482007 6.00716236 16.70936468 12.00582284 18.6875 18.19287109 C22.73595884 30.85484784 27.53434935 43.08364987 32.82128906 55.27539062 C33.89416973 57.75537161 34.94614569 60.24299014 35.9921875 62.734375 C41.18148382 74.93297394 47.50948786 86.45265976 54 98 C54.7319352 99.31501269 55.46372482 100.63010643 56.1953125 101.9453125 C63.9855557 115.79112936 72.54576315 129.0921536 81.66503906 142.09472656 C82.93704755 143.91015345 84.19938218 145.73198912 85.4609375 147.5546875 C93.79512862 159.50401309 102.93014271 170.87966902 112.8046875 181.59375 C114.6594298 183.62670597 116.47238005 185.68485428 118.27734375 187.76171875 C128.23442724 199.16589838 138.6965475 209.93528202 150 220 C151.46398058 221.36978343 152.92793892 222.73959389 154.3894043 224.11206055 C160.72178104 230.02817588 167.39742429 235.4044889 174.27392578 240.67236328 C175.93001777 241.94617208 177.57400871 243.23396778 179.21484375 244.52734375 C205.66969032 265.29750872 234.76827864 282.36903811 265 297 C265.66241699 297.32419922 266.32483398 297.64839844 267.00732422 297.98242188 C285.19771972 306.86761387 303.90122323 313.87367664 323.15917969 320.08154297 C325.77965815 320.92876194 328.39423424 321.79193625 331.0078125 322.66015625 C341.52211703 326.11572454 352.12636112 328.90315026 362.9284668 331.30810547 C365.28099624 331.83803699 367.62646854 332.386124 369.97192383 332.94580078 C381.10562004 335.56344291 392.20928404 337.28696477 403.5625 338.625 C404.43960632 338.73016937 405.31671265 338.83533875 406.22039795 338.94369507 C411.40874312 339.56484657 416.59905452 340.16588166 421.79168701 340.75006104 C423.70434791 340.96653781 425.61617453 341.19036187 427.52783203 341.41552734 C442.42849747 343.13083369 457.33232734 343.17363858 472.3125 343.1875 C473.77372284 343.18926743 473.77372284 343.18926743 475.26446533 343.19107056 C497.15167177 343.18807035 518.26242695 341.88739918 539.89550781 338.43945312 C542.51704967 338.06836353 545.06943923 337.83255253 547.7109375 337.703125 C557.50531053 336.88203984 560.99392648 333.43806758 567.375 326.3125 C576.76300422 315.85184598 586.38931083 313.0675381 599.75878906 309.82568359 C604.78707563 308.54475069 609.66815809 306.90321306 614.5625 305.1875 C615.95988403 304.69963013 615.95988403 304.69963013 617.38549805 304.2019043 C627.80539748 300.47634865 637.89364439 296.01471771 647.94628906 291.40136719 C649.92939104 290.4913092 651.9155703 289.58791642 653.90527344 288.69238281 C675.71291096 278.8658088 696.39887973 266.70198216 716 253 C716.56364258 252.61215332 717.12728516 252.22430664 717.70800781 251.82470703 C727.5528409 245.04842928 736.81140556 237.63505888 746 230 C746.57105469 229.52949219 747.14210938 229.05898438 747.73046875 228.57421875 C760.26851713 218.24000785 771.98993328 207.08542889 783.5 195.625 C784.24145264 194.88822021 784.98290527 194.15144043 785.74682617 193.39233398 C790.36851995 188.75705468 794.74710314 183.97444097 799 179 C799.87749311 177.99078884 800.75508852 176.98166662 801.6328125 175.97265625 C809.10824911 167.24350222 816.13010092 158.21168073 823 149 C823.54446777 148.27119629 824.08893555 147.54239258 824.64990234 146.79150391 C837.85281672 129.0372134 849.29203943 110.348202 860 91 C860.45197754 90.18934082 860.90395508 89.37868164 861.36962891 88.54345703 C876.8240518 60.6419889 889.08962518 30.60520046 898 0 C905.26 0 912.52 0 920 0 C910.3537984 35.78797873 896.70262644 70.42825715 879 103 C878.60055176 103.74217773 878.20110352 104.48435547 877.78955078 105.24902344 C865.42727537 128.19089464 851.35653451 149.90152306 835.25634766 170.39208984 C833.94412586 172.07150935 832.64892133 173.76312311 831.35546875 175.45703125 C825.87225264 182.596153 820.10891226 189.32863853 813.921875 195.8671875 C811.87819123 198.02888196 809.9285438 200.24703157 808 202.51171875 C802.9722906 208.28712468 797.52554615 213.66046873 792.11328125 219.07202148 C790.26271033 220.92477468 788.42029924 222.78538706 786.578125 224.64648438 C780.47075778 230.78264446 774.30683893 236.6043819 767.50976562 241.98706055 C765.0566522 243.95456251 762.72071788 246.00623431 760.390625 248.1171875 C756.02159693 252.03845803 751.45582381 255.61835467 746.75 259.125 C745.89591553 259.7631665 745.04183105 260.40133301 744.16186523 261.05883789 C734.68479873 268.07150469 724.9061 274.61205354 715 281 C714.37544922 281.40299316 713.75089844 281.80598633 713.10742188 282.22119141 C704.35201548 287.82901398 695.2627934 292.84774681 686.14013672 297.82568359 C684.26390639 298.85519168 682.39858088 299.90452196 680.53515625 300.95703125 C661.18862912 311.68001886 640.70407649 319.99190593 619.9375 327.5 C619.14013428 327.79118713 618.34276855 328.08237427 617.52124023 328.38238525 C606.21995693 332.48995586 594.85711511 335.74635727 583.15205383 338.49420166 C580.03414097 339.22700635 576.92382098 339.98973539 573.8125 340.75 C572.89082031 340.97171875 571.96914063 341.1934375 571.01953125 341.421875 C569.02096385 341.81730405 569.02096385 341.81730405 568 343 C566.55481495 343.32205258 565.09724215 343.5888254 563.63671875 343.83203125 C562.70061768 343.98889404 561.7645166 344.14575684 560.80004883 344.30737305 C559.77290771 344.47406494 558.7457666 344.64075684 557.6875 344.8125 C556.62748779 344.98628174 555.56747559 345.16006348 554.4753418 345.33911133 C546.09860284 346.69534525 537.70997815 347.96667636 529.3125 349.1875 C528.18094482 349.35419189 527.04938965 349.52088379 525.88354492 349.69262695 C509.53429398 352.02447016 493.42831334 352.19882697 476.9375 352.1875 C475.73223663 352.18789276 474.52697327 352.18828552 473.28518677 352.18869019 C456.71597139 352.18220711 440.29619814 351.91541651 423.79882812 350.26538086 C420.6173172 349.96371457 417.43372738 349.73533826 414.24609375 349.5078125 C409.64786963 349.15860181 405.16368776 348.65394211 400.625 347.8125 C399.953479 347.68866943 399.28195801 347.56483887 398.59008789 347.43725586 C397.01167037 347.14354537 395.43400214 346.84579147 393.85693359 346.54492188 C391.72776575 346.13881158 389.59774164 345.73718558 387.46728516 345.33789062 C366.97386002 341.49521244 346.98803811 337.10983739 327.12597656 330.67871094 C324.32560537 329.78470176 321.50688442 328.95682882 318.6875 328.125 C295.04532685 320.82987101 271.65903008 311.46973039 249.76513672 299.9296875 C248.00716711 299.00377488 246.2399004 298.09558559 244.47265625 297.1875 C218.64680968 283.81214015 193.85054202 267.99450646 171 250 C170.33033203 249.4730957 169.66066406 248.94619141 168.97070312 248.40332031 C160.99338119 242.09262197 153.26219197 235.59305659 145.84375 228.6328125 C143.74786259 226.69238926 141.63481383 224.8293286 139.46484375 222.9765625 C134.00286059 218.21585827 128.90315566 213.08918878 123.7824707 207.96777344 C122.07456944 206.26205402 120.35881955 204.56450973 118.64257812 202.8671875 C112.67709818 196.93150828 107.0957715 190.90933953 101.8527832 184.31835938 C99.70013803 181.62478729 97.43015081 179.12996624 95.0625 176.625 C90.18200822 171.30219022 85.74803783 165.70833174 81.43505859 159.92382812 C80.41809752 158.5604982 79.3971871 157.20011017 78.37353516 155.84179688 C64.9109996 137.97285671 53.19310102 119.3610396 42 100 C41.53625977 99.20851563 41.07251953 98.41703125 40.59472656 97.6015625 C25.73884766 72.16534618 14.52499577 44.8167017 5 17 C4.77074829 16.33133911 4.54149658 15.66267822 4.30529785 14.97375488 C3.59756747 12.90323764 2.89533341 10.83094777 2.1953125 8.7578125 C1.77523926 7.51402832 1.35516602 6.27024414 0.92236328 4.98876953 C0 2 0 2 0 0 Z " fill="#F5011F" transform="translate(168,758)"/>
<path d="M0 0 C1.09054687 0.63905273 1.09054687 0.63905273 2.203125 1.29101562 C24.07669706 14.19718795 44.76371389 28.86877287 64.0078125 45.4453125 C66.87918941 47.89685362 69.80278357 50.26559405 72.75 52.625 C77.08320897 56.1469115 81.01595511 59.90938978 84.91015625 63.90625 C86.75252173 65.75205916 88.63269645 67.44546669 90.625 69.125 C99.44375243 76.70167462 107.85269579 85.18315837 115.34765625 94.0703125 C117.41558631 96.48534193 119.58607434 98.79565725 121.75 101.125 C127.04206246 106.93023216 131.87542717 113.03649825 136.66064453 119.26220703 C137.93041062 120.90970886 139.21111954 122.54794034 140.49609375 124.18359375 C161.01497658 150.48059399 178.65139105 178.97587397 193.06689453 209.06445312 C194.04744753 211.09842073 195.05216289 213.11934909 196.05859375 215.140625 C200.96470913 225.11414665 205.25192256 235.30852456 209.375 245.625 C209.63398071 246.27188782 209.89296143 246.91877563 210.15979004 247.58526611 C218 267.22322636 218 267.22322636 218 273 C215.69 273 213.38 273 211 273 C210.73485596 272.18772949 210.46971191 271.37545898 210.1965332 270.53857422 C190.46998918 210.55609324 161.44805228 153.2232745 119 106 C118.24589844 105.14664063 117.49179687 104.29328125 116.71484375 103.4140625 C114.49922057 100.92096875 112.2560188 98.45663201 110 96 C109.44554199 95.39510742 108.89108398 94.79021484 108.31982422 94.16699219 C101.65393144 86.91329365 95.02349932 79.72597048 87.57421875 73.26171875 C85.59818352 71.5255664 83.67676204 69.76636976 81.76953125 67.95703125 C74.38201012 60.95176655 66.78701154 54.45480062 58.68505859 48.29101562 C57.06399954 47.04903355 55.46143208 45.78689279 53.86328125 44.515625 C30.63043081 26.20918827 4.58087273 10.86955111 -22.00537109 -2.02929688 C-23.94277643 -2.97215166 -25.87173147 -3.93081965 -27.80078125 -4.890625 C-55.36308207 -18.41756169 -84.69614045 -28.01766431 -114.45019531 -35.36816406 C-116.74913287 -35.93783568 -119.04275553 -36.52488034 -121.3359375 -37.1171875 C-132.59375234 -39.9671303 -143.99804162 -41.83215427 -155.48681641 -43.48242188 C-157.8045088 -43.82387482 -160.11951388 -44.18416935 -162.43115234 -44.56445312 C-182.48886436 -47.84940804 -202.45934332 -48.40282125 -222.74419403 -48.43345642 C-224.77205827 -48.43742094 -226.79985362 -48.44626628 -228.82769775 -48.45593262 C-253.35286682 -48.5295214 -277.54610001 -46.68382771 -301.7019043 -42.375 C-303.88960638 -41.98630013 -306.08014277 -41.61757679 -308.27148438 -41.25 C-316.90247859 -39.77082114 -324.51058433 -38.09760083 -332.12109375 -33.5625 C-338.0586693 -30.16596781 -344.47905614 -28.6928612 -351.0625 -27 C-353.01032598 -26.48384188 -354.95683632 -25.96292994 -356.90324402 -25.44145203 C-358.79367668 -24.93500987 -360.68491763 -24.43158801 -362.57617188 -23.92822266 C-371.87593647 -21.40699441 -381.00302261 -18.44696893 -390 -15 C-390.689729 -14.73743408 -391.37945801 -14.47486816 -392.09008789 -14.2043457 C-441.0229358 4.56388558 -485.73345346 30.49147526 -526 64 C-526.99386719 64.81855469 -527.98773437 65.63710938 -529.01171875 66.48046875 C-541.10453773 76.50985292 -552.43046696 87.36020825 -563.5625 98.4375 C-564.20485596 99.07518311 -564.84721191 99.71286621 -565.5090332 100.36987305 C-569.87361527 104.74927155 -573.97512834 109.30806961 -578 114 C-578.45221924 114.51989502 -578.90443848 115.03979004 -579.37036133 115.57543945 C-587.33285178 124.73284242 -594.74973489 134.2726589 -602 144 C-602.43135254 144.5779834 -602.86270508 145.1559668 -603.30712891 145.75146484 C-615.32056967 161.95485313 -626.26136579 178.97503297 -635.78662109 196.75146484 C-638.02466808 200.89883159 -640.33062156 205.00862619 -642.625 209.125 C-644.06875 211.72375 -645.5125 214.3225 -647 217 C-653.27 217 -659.54 217 -666 217 C-657.8891203 176.44560148 -621.22272917 133.95708052 -595 103 C-594.13706853 101.96480998 -593.274199 100.92956833 -592.41137695 99.89428711 C-585.41622656 91.55646585 -578.02954254 83.71624417 -570.30883789 76.0480957 C-568.42811472 74.17816859 -566.55843181 72.29767362 -564.68945312 70.41601562 C-558.49271551 64.21286275 -552.2500234 58.30898701 -545.3503418 52.88500977 C-542.92154673 50.93707929 -540.64769105 48.8769103 -538.375 46.75 C-500.09051952 11.96788524 -452.03157494 -14.51839721 -404 -33 C-403.3507959 -33.25378418 -402.7015918 -33.50756836 -402.03271484 -33.76904297 C-394.00507091 -36.90523534 -386.0168929 -39.66989488 -377.69140625 -41.93359375 C-374.20677152 -42.94026601 -370.8008894 -44.0744954 -367.37548828 -45.26196289 C-359.99969312 -47.81476343 -352.79623654 -49.83114815 -345.09765625 -51.22265625 C-341.04375216 -51.96166502 -337.04315969 -52.89432716 -333.03173828 -53.83422852 C-244.41795332 -74.5766999 -148.26890218 -64.37247765 0 0 Z " fill="#F5011F" transform="translate(862,198)"/>
<path d="M0 0 C1.14626322 0.97866338 2.29199788 1.95794587 3.4375 2.9375 C4.07558594 3.48277344 4.71367188 4.02804687 5.37109375 4.58984375 C6.26991149 5.36795695 7.15936528 6.15936528 8 7 C8.13116014 9.13473652 8.19141627 11.27384908 8.22460938 13.41235352 C8.23599945 14.08239914 8.24738953 14.75244476 8.25912476 15.4427948 C8.37005674 22.47568178 8.41726761 29.50963479 8.45996094 36.54321289 C8.48218939 39.87739894 8.52387905 43.21045733 8.58300781 46.54418945 C8.65430923 50.57200565 8.69082486 54.5987652 8.70307922 58.6271801 C8.71344914 60.15858746 8.73580094 61.68996488 8.77067566 63.22101021 C9.06156128 76.69475777 9.06156128 76.69475777 5.0222168 81.42822266 C3.70658298 82.64649969 2.36415509 83.83631097 1 85 C-0.44630953 86.47122065 -1.88295688 87.95198429 -3.3112793 89.44067383 C-4.89623691 91.03214204 -6.48400291 92.62081711 -8.07421875 94.20703125 C-8.92047318 95.0542424 -9.7667276 95.90145355 -10.6386261 96.77433777 C-12.41483838 98.55122645 -14.19229767 100.32686941 -15.97094727 102.10131836 C-18.69337919 104.81836756 -21.41039906 107.54074725 -24.12695312 110.26367188 C-25.85905423 111.99511262 -27.59146526 113.72624338 -29.32421875 115.45703125 C-30.13469162 116.26952835 -30.94516449 117.08202545 -31.78019714 117.91914368 C-32.5381105 118.67390488 -33.29602386 119.42866608 -34.0769043 120.20629883 C-34.73973923 120.86833817 -35.40257416 121.5303775 -36.085495 122.21247864 C-36.71728165 122.80236069 -37.3490683 123.39224274 -38 124 C-38.78535299 124.78664032 -38.78535299 124.78664032 -39.58657169 125.58917236 C-43.11873848 127.65398552 -46.55257271 127.40349592 -50.52935791 127.36076355 C-51.83305411 127.36460846 -51.83305411 127.36460846 -53.16308761 127.36853105 C-56.08059242 127.37347949 -58.99758178 127.35695847 -61.91503906 127.34057617 C-64.00427234 127.33973013 -66.0935065 127.34020459 -68.18273926 127.34190369 C-73.86008511 127.34276595 -79.53724158 127.32510265 -85.21454334 127.30418181 C-91.145603 127.28545362 -97.0766668 127.28366762 -103.00775146 127.28010559 C-114.24160504 127.27077379 -125.47537125 127.2461446 -136.70918632 127.21605712 C-149.49741526 127.18254847 -162.28564833 127.16603599 -175.07391024 127.15097082 C-201.3826553 127.11959607 -227.69132276 127.06681347 -254 127 C-253.05456425 125.8888438 -252.10795358 124.77868723 -251.16085815 123.66894531 C-250.63384245 123.05061829 -250.10682674 122.43229126 -249.56384087 121.79522705 C-247.43194381 119.34789411 -245.1759515 117.04622059 -242.8828125 114.75 C-242.19153763 114.05729004 -242.19153763 114.05729004 -241.48629761 113.35058594 C-240.52122562 112.38484057 -239.55491842 111.42032803 -238.58740234 110.45703125 C-237.1313326 109.00630935 -235.68067224 107.55033341 -234.23046875 106.09375 C-233.28157029 105.14551271 -232.33236148 104.19758587 -231.3828125 103.25 C-230.54121582 102.40953125 -229.69961914 101.5690625 -228.83251953 100.703125 C-226.67725304 98.64631492 -224.51142429 96.75693589 -222.22883606 94.85350037 C-219.3722891 92.37955436 -217.06697595 89.91470055 -214.84718323 86.86048889 C-210.44997923 81.08729204 -205.9756775 76.05518019 -198.75498581 74.13874435 C-189.92861925 72.95616086 -181.07108204 73.32539601 -172.19773936 73.66974139 C-168.30851897 73.79910957 -164.41875402 73.82306304 -160.52772522 73.85523987 C-150.66173533 73.95406908 -140.80071252 74.19066832 -130.9375 74.4375 C-120.27972803 74.70142421 -109.62411368 74.93715978 -98.96328169 75.02963501 C-95.10419063 75.06684243 -91.2513475 75.13591138 -87.39472771 75.28210258 C-68.75690534 76.56620711 -68.75690534 76.56620711 -52.48837376 68.96056461 C-48.17409377 64.54875931 -44.7919061 60.87823433 -44.49113464 54.49526978 C-44.55593521 53.23870575 -44.62073578 51.98214172 -44.6875 50.6875 C-44.98600554 44.7883753 -44.23837913 41.74874134 -40.265625 37.16796875 C-35.75065876 32.50667765 -30.93585738 28.20790719 -26 24 C-21.10809585 19.78181128 -16.3818618 15.50334056 -11.875 10.875 C-8.09049072 6.99010586 -4.21678 3.41596718 0 0 Z " fill="#FBFBFB" transform="translate(1006,626)"/>
<path d="M0 0 C1.39456452 0.00667256 2.78911118 0.01863093 4.18359375 0.03515625 C5.2499707 0.04192383 5.2499707 0.04192383 6.33789062 0.04882812 C8.09899388 0.06064761 9.86005411 0.07858362 11.62109375 0.09765625 C10.95174879 4.25382147 9.60617084 7.83952916 7.99609375 11.72265625 C7.44362588 13.08525487 6.89291901 14.4485685 6.34375 15.8125 C6.05773926 16.5226123 5.77172852 17.23272461 5.47705078 17.96435547 C-7.13818174 49.4052858 -16.19056712 82.06933934 -21.47265625 115.51171875 C-21.99612254 118.81332714 -22.55527658 122.09558175 -23.22265625 125.37109375 C-27.83922349 148.5000956 -27.72336128 172.58429336 -28.37890625 196.09765625 C-32.99890625 196.09765625 -37.61890625 196.09765625 -42.37890625 196.09765625 C-44.03004257 130.29681619 -30.88226258 61.48505043 -4.37890625 1.09765625 C-3.37890625 0.09765625 -3.37890625 0.09765625 0 0 Z " fill="#F3011E" transform="translate(190.37890625,435.90234375)"/>
<path d="M0 0 C26.73 0 53.46 0 81 0 C81 3.63 81 7.26 81 11 C76.42214827 11.89288812 72.09493567 12.12137195 67.43408203 12.11352539 C66.3354911 12.11374443 66.3354911 12.11374443 65.21470642 12.1139679 C62.81237751 12.1132755 60.41012774 12.10551482 58.0078125 12.09765625 C56.33486982 12.09578968 54.66192658 12.0943669 52.98898315 12.09336853 C48.59959385 12.08956219 44.21023797 12.07974808 39.82086182 12.06866455 C35.33630831 12.05840985 30.85174937 12.05386223 26.3671875 12.04882812 C17.57810971 12.03812403 8.78905902 12.02107035 0 12 C0 8.04 0 4.08 0 0 Z " fill="#F5011F" transform="translate(611,1067)"/>
<path d="M0 0 C1.98 0 3.96 0 6 0 C7.84294039 4.1805514 8.88145975 8.43115232 9.83984375 12.87890625 C10.00665146 13.63957901 10.17345917 14.40025177 10.34532166 15.18397522 C10.8816952 17.64229794 11.41032067 20.10219034 11.9375 22.5625 C12.11774719 23.39747009 12.29799438 24.23244019 12.48370361 25.0927124 C14.85027786 36.08179558 17.01179567 47.04233258 18.48828125 58.19140625 C18.91268903 61.35016646 19.43786633 64.43933163 20.0625 67.5625 C21.00958201 72.57646356 21.57758972 77.61728804 22.125 82.6875 C22.21273682 83.48422119 22.30047363 84.28094238 22.39086914 85.10180664 C22.62769144 87.39953257 22.81667925 89.6974714 23 92 C23.08733398 92.7213916 23.17466797 93.4427832 23.26464844 94.18603516 C23.49574429 97.10344931 23.58792826 99.29407885 21.66064453 101.6081543 C20 103 20 103 17 105 C16.9498877 104.42258057 16.89977539 103.84516113 16.84814453 103.25024414 C15.2554563 85.01739484 13.45214037 66.98544128 10 49 C9.8153418 48.03433105 9.63068359 47.06866211 9.44042969 46.07373047 C7.19942687 34.43246299 4.88383076 22.85191328 1.796875 11.40234375 C0.90489199 7.5939261 0.42566117 3.88628646 0 0 Z " fill="#E8001D" transform="translate(1081,493)"/>
<path d="M0 0 C0.99 0 1.98 0 3 0 C3 61.05 3 122.1 3 185 C2.01 185 1.02 185 0 185 C0 123.95 0 62.9 0 0 Z " fill="#F2001D" transform="translate(789,256)"/>
<path d="M0 0 C1.98 0 3.96 0 6 0 C6 2.31 6 4.62 6 7 C8.97 7 11.94 7 15 7 C15 4.69 15 2.38 15 0 C16.65 0 18.3 0 20 0 C20 2.64 20 5.28 20 8 C22.31 8 24.62 8 27 8 C27 9.32 27 10.64 27 12 C25.02 12.33 23.04 12.66 21 13 C20.90203125 13.79664063 20.8040625 14.59328125 20.703125 15.4140625 C19.15738679 26.3674833 19.15738679 26.3674833 15 31 C12.01106771 33.18702362 10.72055546 34 7 34 C5.3125 32.625 5.3125 32.625 4 31 C4 30.34 4 29.68 4 29 C5.7578125 28.05598958 7.515625 27.11197917 9.2734375 26.16796875 C11.67618248 24.54258244 12.83783859 22.80009827 13.4140625 19.95703125 C13.48367188 19.24933594 13.55328125 18.54164063 13.625 17.8125 C13.74875 16.554375 13.8725 15.29625 14 14 C11.36 14 8.72 14 6 14 C6 16.64 6 19.28 6 22 C3.69 22 1.38 22 -1 22 C-1 19.03 -1 16.06 -1 13 C-2.98 13 -4.96 13 -7 13 C-7 11.35 -7 9.7 -7 8 C-4.69 8 -2.38 8 0 8 C0 5.36 0 2.72 0 0 Z " fill="#DC011A" transform="translate(836,280)"/>
<path d="M0 0 C0 0.99 0 1.98 0 3 C0.84780029 2.98952637 1.69560059 2.97905273 2.5690918 2.96826172 C22.4934094 2.75654323 42.13767871 3.29472935 62 5 C62 5.33 62 5.66 62 6 C52.22964418 6.09354596 42.50497681 6.09575514 32.75 5.5 C8.61423523 4.13231475 -15.38725295 5.06766946 -39.47167969 6.75634766 C-44.16675875 7.08057191 -48.86386251 7.35828307 -53.5625 7.625 C-54.84253906 7.69976562 -56.12257813 7.77453125 -57.44140625 7.8515625 C-58.70791016 7.92503906 -58.70791016 7.92503906 -60 8 C-60 6.02 -60 4.04 -60 2 C-55.41800809 1.28600348 -50.94240859 0.83498211 -46.30859375 0.68359375 C-45.04345947 0.64161865 -43.7783252 0.59964355 -42.47485352 0.55639648 C-41.12907857 0.51644087 -39.78329381 0.47681487 -38.4375 0.4375 C-37.7564621 0.41632111 -37.07542419 0.39514221 -36.37374878 0.37332153 C-24.24777249 -0.00241996 -12.13135249 -0.11456681 0 0 Z " fill="#DE011B" transform="translate(631,177)"/>
<path d="M0 0 C1.65 0.66 3.3 1.32 5 2 C3.63693257 5.22631165 2.32005741 6.64449826 -0.56640625 8.5703125 C-2.88692963 10.48232269 -3.86992407 11.52008778 -4.66357422 14.44824219 C-4.9108075 17.27650999 -4.97019412 20.03638106 -4.9375 22.875 C-4.95361328 23.84953125 -4.96972656 24.8240625 -4.98632812 25.828125 C-5.02150558 28.22019166 -5.02517629 30.60793411 -5 33 C-6.98 33 -8.96 33 -11 33 C-11 27.39 -11 21.78 -11 16 C-12.93875 16.99 -14.8775 17.98 -16.875 19 C-22.75 22 -22.75 22 -25 22 C-25.66 20.02 -26.32 18.04 -27 16 C-26.46632813 15.764021 -25.93265625 15.52804199 -25.3828125 15.28491211 C-11.52019586 9.42378842 -11.52019586 9.42378842 0 0 Z " fill="#F1011C" transform="translate(856,322)"/>
<path d="M0 0 C14.42647599 1.03046257 28.63290088 5.80299973 42.25 10.4375 C49.43294024 12.849195 56.70917223 14.94353433 64 17 C64.73025391 17.20915039 65.46050781 17.41830078 66.21289062 17.63378906 C82.53912599 22.24584229 99.24102255 24.57172848 116 27 C116 27.66 116 28.32 116 29 C107.70369238 29.33705375 100.06496088 28.36058581 91.9375 26.75 C90.75881348 26.52328613 89.58012695 26.29657227 88.36572266 26.06298828 C81.52211508 24.73309045 74.68782123 23.35498848 67.875 21.875 C67.19687256 21.72901367 66.51874512 21.58302734 65.82006836 21.43261719 C61.58219935 20.47685826 57.53523497 19.19868576 53.43359375 17.79443359 C49.8696281 16.63099617 46.25587427 15.6778113 42.63647461 14.70336914 C28.17923126 10.80745725 14.08645009 6.06185895 0 1 C0 0.67 0 0.34 0 0 Z " fill="#CC0018" transform="translate(468,1043)"/>
<path d="M0 0 C1.98 0 3.96 0 6 0 C6 10.56 6 21.12 6 32 C4.02 32 2.04 32 0 32 C0 21.44 0 10.88 0 0 Z " fill="#F4001B" transform="translate(843,407)"/>
<path d="M0 0 C4.45385807 8.1306107 7.11261844 16.96043569 9 26 C6.69 26.66 4.38 27.32 2 28 C1.52820313 26.31583984 1.52820313 26.31583984 1.046875 24.59765625 C-1.17760264 16.77925875 -3.51152515 9.36455802 -7 2 C-7 1.34 -7 0.68 -7 0 C-3.98968256 -0.93423645 -3.13349732 -1.04449911 0 0 Z " fill="#E8011B" transform="translate(855,369)"/>
<path d="M0 0 C2.97 0.495 2.97 0.495 6 1 C5.32322289 11.15165663 2.47436921 20.39741981 -3 29 C-4.98 28.34 -6.96 27.68 -9 27 C-8.03600297 24.57072749 -7.06371669 22.14884425 -6.03515625 19.74609375 C-3.32116589 13.30445398 -1.54459379 6.81025445 0 0 Z " fill="#E80018" transform="translate(837,368)"/>
<path d="M0 0 C0 0.99 0 1.98 0 3 C0.84780029 2.98952637 1.69560059 2.97905273 2.5690918 2.96826172 C22.4934094 2.75654323 42.13767871 3.29472935 62 5 C62 5.33 62 5.66 62 6 C51.59117797 6.09965893 41.23954011 6.03965793 30.84741211 5.42382812 C24.78720068 5.08813966 18.73149773 4.90860961 12.6640625 4.78125 C11.82094009 4.76287582 10.97781769 4.74450165 10.10914612 4.72557068 C6.67541291 4.65147966 3.24178223 4.57779613 -0.19229126 4.52127075 C-11.58167053 4.33359193 -22.71264695 3.55109317 -34 2 C-34 1.67 -34 1.34 -34 1 C-22.69256254 -0.33589978 -11.36626101 -0.09861278 0 0 Z " fill="#CF0017" transform="translate(631,177)"/>
<path d="M0 0 C1.65 0 3.3 0 5 0 C5 2.64 5 5.28 5 8 C6.32 8 7.64 8 9 8 C9 9.32 9 10.64 9 12 C8.01 12.33 7.02 12.66 6 13 C5.67 15.64 5.34 18.28 5 21 C3.35 21 1.7 21 0 21 C0 18.36 0 15.72 0 13 C-2.31 13 -4.62 13 -7 13 C-7 11.35 -7 9.7 -7 8 C-4.69 8 -2.38 8 0 8 C0 5.36 0 2.72 0 0 Z " fill="#F2011D" transform="translate(836,280)"/>
<path d="M0 0 C10.23 0 20.46 0 31 0 C31 1.65 31 3.3 31 5 C20.77 5 10.54 5 0 5 C0 3.35 0 1.7 0 0 Z " fill="#D40015" transform="translate(1064,732)"/>
<path d="M0 0 C12.21 0 24.42 0 37 0 C37 1.32 37 2.64 37 4 C24.79 4 12.58 4 0 4 C0 2.68 0 1.36 0 0 Z " fill="#F10019" transform="translate(149,654)"/>
<path d="M0 0 C9.57 0 19.14 0 29 0 C28.67 1.65 28.34 3.3 28 5 C18.76 5 9.52 5 0 5 C0 3.35 0 1.7 0 0 Z " fill="#D10017" transform="translate(1071,706)"/>
<path d="M0 0 C9.9 0 19.8 0 30 0 C30 1.32 30 2.64 30 4 C20.1 4 10.2 4 0 4 C0 2.68 0 1.36 0 0 Z " fill="#ED001A" transform="translate(152,680)"/>
<path d="M0 0 C8.91 0 17.82 0 27 0 C27 1.32 27 2.64 27 4 C18.09 4 9.18 4 0 4 C0 2.68 0 1.36 0 0 Z " fill="#EA0018" transform="translate(1076,680)"/>
<path d="M0 0 C6.6 0 13.2 0 20 0 C20 1.65 20 3.3 20 5 C13.4 5 6.8 5 0 5 C0 3.35 0 1.7 0 0 Z " fill="#CE0014" transform="translate(156,706)"/>
<path d="M0 0 C7.59 0 15.18 0 23 0 C23 1.32 23 2.64 23 4 C15.41 4 7.82 4 0 4 C0 2.68 0 1.36 0 0 Z " fill="#F10019" transform="translate(1082,654)"/>
<path d="M0 0 C1.0528418 0.14671143 1.0528418 0.14671143 2.12695312 0.29638672 C4.31546981 0.60362457 6.50132163 0.92659216 8.6875 1.25 C10.07664498 1.4465741 11.46596303 1.64192979 12.85546875 1.8359375 C16.13438745 2.29719212 19.41145496 2.76883088 22.6875 3.25 C22.6875 3.91 22.6875 4.57 22.6875 5.25 C14.8660653 5.52561155 7.66386111 4.77761137 0 3.25 C-0.99966797 3.05921875 -1.99933594 2.8684375 -3.02929688 2.671875 C-5.45891688 2.20687596 -7.8863762 1.73284904 -10.3125 1.25 C-6.54253391 -1.26331073 -4.23869645 -0.64741185 0 0 Z " fill="#B50117" transform="translate(561.3125,1066.75)"/>
<path d="M0 0 C6.27 0 12.54 0 19 0 C19 1.32 19 2.64 19 4 C12.73 4 6.46 4 0 4 C0 2.68 0 1.36 0 0 Z " fill="#E9001A" transform="translate(1087,628)"/>
<path d="M0 0 C0.33 0.66 0.66 1.32 1 2 C1.90685547 2.45052734 1.90685547 2.45052734 2.83203125 2.91015625 C5.25043803 4.12589587 6.78643495 5.51993981 8.6875 7.4375 C9.28949219 8.03433594 9.89148438 8.63117188 10.51171875 9.24609375 C12 11 12 11 13 14 C9.39438086 12.4700928 7.0140801 10.31303068 4.25 7.5625 C3.45078125 6.78003906 2.6515625 5.99757813 1.828125 5.19140625 C0 3 0 3 0 0 Z " fill="#F30124" transform="translate(955,273)"/>
<path d="M0 0 C5.4185766 -0.22577402 9.77487721 0.53329887 15 2 C14.34 2.66 13.68 3.32 13 4 C8.4029922 3.64638402 4.31900631 2.58012426 0 1 C0 0.67 0 0.34 0 0 Z " fill="#DC0018" transform="translate(517,1058)"/>
<path d="M0 0 C0.99 0.33 1.98 0.66 3 1 C0.03 3.64 -2.94 6.28 -6 9 C-6.66 8.34 -7.32 7.68 -8 7 C-6.74057614 5.80040625 -5.46704714 4.61560557 -4.1875 3.4375 C-3.12595703 2.44556641 -3.12595703 2.44556641 -2.04296875 1.43359375 C-1.36878906 0.96050781 -0.69460938 0.48742187 0 0 Z " fill="#E4011A" transform="translate(545,703)"/>
<path d="M0 0 C0 0.99 0 1.98 0 3 C0.99 3.33 1.98 3.66 3 4 C-5.57142857 3.14285714 -5.57142857 3.14285714 -9 1 C-6.04335481 -0.4783226 -3.25770263 -0.06032783 0 0 Z " fill="#B20013" transform="translate(537,1061)"/>
<path d="M0 0 C3.76687864 1.88343932 4.79421646 2.69132469 7 6 C5.68 6.99 4.36 7.98 3 9 C2.01 6.03 1.02 3.06 0 0 Z " fill="#D3001F" transform="translate(965,281)"/>
<path d="M0 0 C1.32 0 2.64 0 4 0 C4.66 1.65 5.32 3.3 6 5 C4.68 5.33 3.36 5.66 2 6 C1.34 4.02 0.68 2.04 0 0 Z " fill="#D8011C" transform="translate(859,363)"/>
<path d="M0 0 C0.99 0.99 1.98 1.98 3 3 C0.03 5.475 0.03 5.475 -3 8 C-3.66 7.67 -4.32 7.34 -5 7 C-2.25 3.125 -2.25 3.125 0 2 C0 1.34 0 0.68 0 0 Z " fill="#D0CFD0" transform="translate(501,531)"/>
<path d="M0 0 C2.475 0.495 2.475 0.495 5 1 C5 2.32 5 3.64 5 5 C4.01 5 3.02 5 2 5 C1.34 3.35 0.68 1.7 0 0 Z " fill="#EB0016" transform="translate(854,365)"/>
<path d="M0 0 C1.65 1.65 3.3 3.3 5 5 C3.35 5.33 1.7 5.66 0 6 C-1 3 -1 3 0 0 Z " fill="#DE0321" transform="translate(997,317)"/>
</svg>
